<?xml version="1.0" encoding="UTF-8" standalone="no"?>
<!-- Created with Inkscape (http://www.inkscape.org/) -->

<svg
   xmlns:dc="http://purl.org/dc/elements/1.1/"
   xmlns:cc="http://creativecommons.org/ns#"
   xmlns:rdf="http://www.w3.org/1999/02/22-rdf-syntax-ns#"
   xmlns:svg="http://www.w3.org/2000/svg"
   xmlns="http://www.w3.org/2000/svg"
   xmlns:xlink="http://www.w3.org/1999/xlink"
   xmlns:sodipodi="http://sodipodi.sourceforge.net/DTD/sodipodi-0.dtd"
   xmlns:inkscape="http://www.inkscape.org/namespaces/inkscape"
   width="210mm"
   height="297mm"
   viewBox="0 0 744.09448819 1052.3622047"
   id="svg4167"
   version="1.1"
   inkscape:version="0.91 r13725"
   sodipodi:docname="apple.svg"
   inkscape:export-filename="/Users/matt/Projects/dojo-pgzero-ii/images/apple.png"
   inkscape:export-xdpi="90"
   inkscape:export-ydpi="90">
  <defs
     id="defs4169">
    <linearGradient
       inkscape:collect="always"
       id="linearGradient4739">
      <stop
         style="stop-color:#d40000;stop-opacity:1;"
         offset="0"
         id="stop4741" />
      <stop
         style="stop-color:#d40000;stop-opacity:1"
         offset="1"
         id="stop4743" />
    </linearGradient>
    <linearGradient
       inkscape:collect="always"
       xlink:href="#linearGradient4739"
       id="linearGradient4751"
       x1="388.57144"
       y1="438.07651"
       x2="314.28571"
       y2="440.93362"
       gradientUnits="userSpaceOnUse" />
  </defs>
  <sodipodi:namedview
     id="base"
     pagecolor="#ffffff"
     bordercolor="#666666"
     borderopacity="1.0"
     inkscape:pageopacity="0.0"
     inkscape:pageshadow="2"
     inkscape:zoom="0.35"
     inkscape:cx="-56.428571"
     inkscape:cy="520"
     inkscape:document-units="px"
     inkscape:current-layer="layer1"
     showgrid="false"
     inkscape:window-width="1916"
     inkscape:window-height="1155"
     inkscape:window-x="4"
     inkscape:window-y="0"
     inkscape:window-maximized="1" />
  <metadata
     id="metadata4172">
    <rdf:RDF>
      <cc:Work
         rdf:about="">
        <dc:format>image/svg+xml</dc:format>
        <dc:type
           rdf:resource="http://purl.org/dc/dcmitype/StillImage" />
        <dc:title></dc:title>
      </cc:Work>
    </rdf:RDF>
  </metadata>
  <g
     inkscape:label="Layer 1"
     inkscape:groupmode="layer"
     id="layer1">
    <path
       style="fill:#ffffff;fill-rule:evenodd;stroke:#008000;stroke-width:14.2;stroke-linecap:butt;stroke-linejoin:miter;stroke-opacity:1;stroke-miterlimit:4;stroke-dasharray:none;fill-opacity:0"
       d="m 297.14286,395.21935 c 28.77669,6.27092 4.64466,-10.35895 8.57143,-14.28572 0.67343,-0.67343 2.0053,0.42592 2.85714,0 1.20468,-0.60234 1.90476,-1.90476 2.85714,-2.85714 1.90476,-1.90476 4.22007,-3.47296 5.71429,-5.71429 0.52828,-0.79242 -0.67344,-2.1837 0,-2.85714 0.67343,-0.67343 2.0053,0.42592 2.85714,0 1.20468,-0.60234 1.65247,-2.2548 2.85714,-2.85714 1.70367,-0.85184 4.01062,0.85183 5.71429,0 5.77852,-2.88926 0.91621,-6.6305 2.85714,-8.57143 0.67344,-0.67343 2.18371,0.67344 2.85714,0 0.67344,-0.67343 -0.42591,-2.00531 0,-2.85714 0.60234,-1.20468 2.25481,-1.65247 2.85715,-2.85715 0.42591,-0.85183 -0.30117,-1.95363 0,-2.85714 0.67343,-2.0203 2.1837,-3.69398 2.85714,-5.71428 0.28497,-0.8549 -0.2514,-22.85715 0,-22.85715 0.95238,0 0,3.80953 0,2.85715 0,-2.85715 0.90351,-5.86091 0,-8.57143 -0.30117,-0.90351 -2.18371,0.67343 -2.85714,0 -0.67344,-0.67344 0.67343,-2.18371 0,-2.85715 -0.67344,-0.67343 -1.90476,0 -2.85715,0 -0.95238,0 -1.90476,0 -2.85714,0 -0.95238,0 -2.85714,0.95239 -2.85714,0 0,-0.95238 3.80952,0 2.85714,0 -2.85714,0 -5.71428,0 -8.57143,0 -0.95238,0 -1.90476,0 -2.85714,0 -0.95238,0 -2.18371,-0.67343 -2.85714,0 -1.34687,1.34687 0.85183,4.01062 0,5.71429 -0.60234,1.20468 -2.25481,1.65247 -2.85715,2.85714 -0.42591,0.85184 0.30117,1.95364 0,2.85715 -0.67343,2.0203 -2.34064,3.64828 -2.85714,5.71428 -0.46197,1.84789 0.85184,4.01062 0,5.71429 -0.42592,0.85183 -2.00531,-0.42592 -2.85714,0 -6.3173,3.15865 -0.88663,1.77326 -2.85714,5.71428 -0.60234,1.20468 -2.25481,1.65247 -2.85715,2.85715 -0.88487,1.76975 0.84538,10.58319 0,11.42857 -0.67343,0.67343 -2.1837,-0.67344 -2.85714,0 -0.67344,0.67343 0,1.90476 0,2.85714 0,5.71429 0,11.42857 0,17.14286 0,0.95238 0.95238,2.85714 0,2.85714 -0.95238,0 0,-1.90476 0,-2.85714 0,-1.90476 0,-3.80953 0,-5.71429 0,-4.7619 0,-9.52381 0,-14.28571 0,-1.87692 0.33593,-10.75671 0,-11.42857 -0.42592,-0.85184 -2.18371,0.67343 -2.85714,0 -0.67344,-0.67344 0,-1.90477 0,-2.85715 -0.95238,0 -2.18371,0.67344 -2.85715,0 -0.67343,-0.67343 0.42592,-2.0053 0,-2.85714 -0.60233,-1.20468 -2.2548,-1.65247 -2.85714,-2.85714 -0.42592,-0.85184 0.67344,-2.18371 0,-2.85715 -5.91153,-5.91153 0.23109,9.03361 -5.71428,-2.85714 -0.42592,-0.85183 0,-1.90476 0,-2.85714 -0.95239,-0.95238 -2.25481,-1.65247 -2.85715,-2.85714 -0.42591,-0.85184 0.67344,-2.18371 0,-2.85715 -1.92,-1.92 -3.79428,1.92 -5.71428,0 -3.80953,-3.80952 4.7619,-2.85714 -2.85715,-2.85714"
       id="path4729"
       inkscape:connector-curvature="0" />
    <path
       style="fill:url(#linearGradient4751);fill-rule:evenodd;stroke:#000000;stroke-width:10.39999962;stroke-linecap:butt;stroke-linejoin:miter;stroke-miterlimit:4;stroke-dasharray:none;stroke-opacity:1;fill-opacity:1"
       d="m 300,403.79078 c -3.4505,-52.50612 -83.38598,-32.61382 -75.38901,15.62397 -0.5923,38.17849 43.63161,51.59085 53.68924,85.70487 26.88896,34.74441 47.20063,-41.28326 77.40628,1.06641 31.24158,-11.05872 33.62002,-71.82653 33.60273,-104.12863 -4.53216,-49.52629 -67.96498,-34.21064 -83.88326,-0.44396 -1.80866,0.72578 -3.61732,1.45156 -5.42598,2.17734 z"
       id="path4717"
       inkscape:connector-curvature="0" />
  </g>
</svg>
